<?xml version="1.0" encoding="UTF-8"?>
<mxfile host="app.diagrams.net" agent="Mozilla/5.0 (Windows NT 10.0; Win64; x64) AppleWebKit/537.36 (KHTML, like Gecko) Chrome/138.0.0.0 Safari/537.36" version="28.0.4">
  <diagram name="Page-1" id="G9zbvElaMVJumDykRlLI">
    <mxGraphModel dx="1426" dy="903" grid="1" gridSize="10" guides="1" tooltips="1" connect="1" arrows="1" fold="1" page="1" pageScale="1" pageWidth="850" pageHeight="1100" math="0" shadow="0">
      <root>
        <mxCell id="0" />
        <mxCell id="1" parent="0" />
        <mxCell id="HzNuVW6m7QI5n4Rx_r8U-1" value="Nurse" style="rounded=0;whiteSpace=wrap;html=1;" parent="1" vertex="1">
          <mxGeometry x="10" y="520" width="120" height="60" as="geometry" />
        </mxCell>
        <mxCell id="HzNuVW6m7QI5n4Rx_r8U-2" value="Ward" style="rounded=0;whiteSpace=wrap;html=1;" parent="1" vertex="1">
          <mxGeometry x="10" y="405" width="120" height="60" as="geometry" />
        </mxCell>
        <mxCell id="HzNuVW6m7QI5n4Rx_r8U-3" value="Patient-Consultant" style="rounded=0;whiteSpace=wrap;html=1;" parent="1" vertex="1">
          <mxGeometry x="10" y="290" width="120" height="60" as="geometry" />
        </mxCell>
        <mxCell id="HzNuVW6m7QI5n4Rx_r8U-4" value="Consultant" style="rounded=0;whiteSpace=wrap;html=1;" parent="1" vertex="1">
          <mxGeometry x="10" y="165" width="120" height="60" as="geometry" />
        </mxCell>
        <mxCell id="HzNuVW6m7QI5n4Rx_r8U-5" value="Patient" style="rounded=0;whiteSpace=wrap;html=1;" parent="1" vertex="1">
          <mxGeometry x="10" y="40" width="120" height="60" as="geometry" />
        </mxCell>
        <mxCell id="y-4yaJ-ru7fZCb3O2Q1s-1" value="Drug" style="rounded=0;whiteSpace=wrap;html=1;" vertex="1" parent="1">
          <mxGeometry x="10" y="770" width="120" height="60" as="geometry" />
        </mxCell>
        <mxCell id="y-4yaJ-ru7fZCb3O2Q1s-2" value="Patient-Drug-Nurse" style="rounded=0;whiteSpace=wrap;html=1;" vertex="1" parent="1">
          <mxGeometry x="10" y="650" width="120" height="60" as="geometry" />
        </mxCell>
        <mxCell id="y-4yaJ-ru7fZCb3O2Q1s-3" value="&lt;u&gt;COD&lt;/u&gt;, Rec_Dosag" style="text;html=1;align=center;verticalAlign=middle;whiteSpace=wrap;rounded=0;" vertex="1" parent="1">
          <mxGeometry x="160" y="785" width="150" height="30" as="geometry" />
        </mxCell>
        <mxCell id="y-4yaJ-ru7fZCb3O2Q1s-4" value="&lt;u&gt;Date, Time, Patient_ID,&lt;/u&gt; COD, Nurse_ID,Dosag" style="text;html=1;align=center;verticalAlign=middle;whiteSpace=wrap;rounded=0;" vertex="1" parent="1">
          <mxGeometry x="180" y="665" width="270" height="30" as="geometry" />
        </mxCell>
        <mxCell id="y-4yaJ-ru7fZCb3O2Q1s-5" value="&lt;u&gt;Nurse_ID,&lt;/u&gt; Name, Ward_ID" style="text;html=1;align=center;verticalAlign=middle;whiteSpace=wrap;rounded=0;" vertex="1" parent="1">
          <mxGeometry x="160" y="535" width="170" height="30" as="geometry" />
        </mxCell>
        <mxCell id="y-4yaJ-ru7fZCb3O2Q1s-6" value="&lt;u&gt;Ward_ID&lt;/u&gt;, Name, Nurse_ID" style="text;html=1;align=center;verticalAlign=middle;whiteSpace=wrap;rounded=0;" vertex="1" parent="1">
          <mxGeometry x="160" y="420" width="170" height="30" as="geometry" />
        </mxCell>
        <mxCell id="y-4yaJ-ru7fZCb3O2Q1s-7" value="&lt;u&gt;Patient_ID, Consultant_ID&lt;/u&gt;" style="text;html=1;align=center;verticalAlign=middle;whiteSpace=wrap;rounded=0;" vertex="1" parent="1">
          <mxGeometry x="160" y="305" width="150" height="30" as="geometry" />
        </mxCell>
        <mxCell id="y-4yaJ-ru7fZCb3O2Q1s-8" value="&lt;u&gt;Consultant_ID,&lt;/u&gt; Name" style="text;html=1;align=center;verticalAlign=middle;whiteSpace=wrap;rounded=0;" vertex="1" parent="1">
          <mxGeometry x="160" y="180" width="120" height="30" as="geometry" />
        </mxCell>
        <mxCell id="y-4yaJ-ru7fZCb3O2Q1s-9" value="&lt;u&gt;ID&lt;/u&gt;, Name, Do, Consultant_ID,Ward_ID" style="text;html=1;align=center;verticalAlign=middle;whiteSpace=wrap;rounded=0;" vertex="1" parent="1">
          <mxGeometry x="160" y="55" width="210" height="30" as="geometry" />
        </mxCell>
        <mxCell id="y-4yaJ-ru7fZCb3O2Q1s-10" value="Drug-Multivalued" style="rounded=0;whiteSpace=wrap;html=1;" vertex="1" parent="1">
          <mxGeometry x="10" y="870" width="120" height="60" as="geometry" />
        </mxCell>
        <mxCell id="y-4yaJ-ru7fZCb3O2Q1s-11" value="&lt;u&gt;COD, Bran&lt;/u&gt;" style="text;html=1;align=center;verticalAlign=middle;whiteSpace=wrap;rounded=0;" vertex="1" parent="1">
          <mxGeometry x="160" y="885" width="110" height="30" as="geometry" />
        </mxCell>
        <mxCell id="y-4yaJ-ru7fZCb3O2Q1s-12" value="" style="endArrow=none;dashed=1;html=1;dashPattern=1 3;strokeWidth=2;rounded=0;" edge="1" parent="1">
          <mxGeometry width="50" height="50" relative="1" as="geometry">
            <mxPoint x="175" y="915" as="sourcePoint" />
            <mxPoint x="265" y="915" as="targetPoint" />
          </mxGeometry>
        </mxCell>
        <mxCell id="y-4yaJ-ru7fZCb3O2Q1s-14" value="" style="endArrow=none;dashed=1;html=1;dashPattern=1 3;strokeWidth=2;rounded=0;" edge="1" parent="1">
          <mxGeometry width="50" height="50" relative="1" as="geometry">
            <mxPoint x="170" y="335" as="sourcePoint" />
            <mxPoint x="230" y="335" as="targetPoint" />
          </mxGeometry>
        </mxCell>
        <mxCell id="y-4yaJ-ru7fZCb3O2Q1s-16" value="" style="endArrow=none;dashed=1;html=1;dashPattern=1 3;strokeWidth=2;rounded=0;" edge="1" parent="1">
          <mxGeometry width="50" height="50" relative="1" as="geometry">
            <mxPoint x="250" y="84" as="sourcePoint" />
            <mxPoint x="310" y="84" as="targetPoint" />
          </mxGeometry>
        </mxCell>
        <mxCell id="y-4yaJ-ru7fZCb3O2Q1s-17" value="" style="endArrow=none;dashed=1;html=1;dashPattern=1 3;strokeWidth=2;rounded=0;" edge="1" parent="1">
          <mxGeometry width="50" height="50" relative="1" as="geometry">
            <mxPoint x="320" y="84" as="sourcePoint" />
            <mxPoint x="380" y="84" as="targetPoint" />
          </mxGeometry>
        </mxCell>
        <mxCell id="y-4yaJ-ru7fZCb3O2Q1s-18" value="" style="endArrow=none;dashed=1;html=1;dashPattern=1 3;strokeWidth=2;rounded=0;" edge="1" parent="1">
          <mxGeometry width="50" height="50" relative="1" as="geometry">
            <mxPoint x="240" y="335" as="sourcePoint" />
            <mxPoint x="300" y="335" as="targetPoint" />
          </mxGeometry>
        </mxCell>
        <mxCell id="y-4yaJ-ru7fZCb3O2Q1s-19" value="" style="endArrow=none;dashed=1;html=1;dashPattern=1 3;strokeWidth=2;rounded=0;entryX=0.444;entryY=1;entryDx=0;entryDy=0;entryPerimeter=0;" edge="1" parent="1" target="y-4yaJ-ru7fZCb3O2Q1s-4">
          <mxGeometry width="50" height="50" relative="1" as="geometry">
            <mxPoint x="250" y="695" as="sourcePoint" />
            <mxPoint x="290" y="700" as="targetPoint" />
          </mxGeometry>
        </mxCell>
        <mxCell id="y-4yaJ-ru7fZCb3O2Q1s-20" value="" style="endArrow=none;dashed=1;html=1;dashPattern=1 3;strokeWidth=2;rounded=0;" edge="1" parent="1">
          <mxGeometry width="50" height="50" relative="1" as="geometry">
            <mxPoint x="270" y="565" as="sourcePoint" />
            <mxPoint x="330" y="565" as="targetPoint" />
          </mxGeometry>
        </mxCell>
        <mxCell id="y-4yaJ-ru7fZCb3O2Q1s-21" value="" style="endArrow=none;dashed=1;html=1;dashPattern=1 3;strokeWidth=2;rounded=0;" edge="1" parent="1">
          <mxGeometry width="50" height="50" relative="1" as="geometry">
            <mxPoint x="260" y="450" as="sourcePoint" />
            <mxPoint x="320" y="450" as="targetPoint" />
          </mxGeometry>
        </mxCell>
        <mxCell id="y-4yaJ-ru7fZCb3O2Q1s-22" value="" style="endArrow=none;dashed=1;html=1;dashPattern=1 3;strokeWidth=2;rounded=0;" edge="1" parent="1">
          <mxGeometry width="50" height="50" relative="1" as="geometry">
            <mxPoint x="300" y="695" as="sourcePoint" />
            <mxPoint x="340" y="695" as="targetPoint" />
          </mxGeometry>
        </mxCell>
        <mxCell id="y-4yaJ-ru7fZCb3O2Q1s-23" value="" style="endArrow=none;dashed=1;html=1;dashPattern=1 3;strokeWidth=2;rounded=0;entryX=0.75;entryY=1;entryDx=0;entryDy=0;" edge="1" parent="1" target="y-4yaJ-ru7fZCb3O2Q1s-4">
          <mxGeometry width="50" height="50" relative="1" as="geometry">
            <mxPoint x="340" y="695" as="sourcePoint" />
            <mxPoint x="380" y="700" as="targetPoint" />
          </mxGeometry>
        </mxCell>
        <mxCell id="y-4yaJ-ru7fZCb3O2Q1s-24" value="" style="endArrow=classic;html=1;rounded=0;exitX=0.75;exitY=0;exitDx=0;exitDy=0;entryX=0.25;entryY=1;entryDx=0;entryDy=0;" edge="1" parent="1" source="y-4yaJ-ru7fZCb3O2Q1s-5" target="y-4yaJ-ru7fZCb3O2Q1s-6">
          <mxGeometry width="50" height="50" relative="1" as="geometry">
            <mxPoint x="400" y="520" as="sourcePoint" />
            <mxPoint x="450" y="470" as="targetPoint" />
          </mxGeometry>
        </mxCell>
        <mxCell id="y-4yaJ-ru7fZCb3O2Q1s-25" value="" style="endArrow=classic;html=1;rounded=0;entryX=0.25;entryY=0;entryDx=0;entryDy=0;" edge="1" parent="1" target="y-4yaJ-ru7fZCb3O2Q1s-5">
          <mxGeometry width="50" height="50" relative="1" as="geometry">
            <mxPoint x="290" y="450" as="sourcePoint" />
            <mxPoint x="450" y="470" as="targetPoint" />
          </mxGeometry>
        </mxCell>
        <mxCell id="y-4yaJ-ru7fZCb3O2Q1s-26" value="" style="endArrow=classic;html=1;rounded=0;exitX=0.25;exitY=0;exitDx=0;exitDy=0;entryX=0.043;entryY=1.1;entryDx=0;entryDy=0;entryPerimeter=0;" edge="1" parent="1" source="y-4yaJ-ru7fZCb3O2Q1s-7" target="y-4yaJ-ru7fZCb3O2Q1s-9">
          <mxGeometry width="50" height="50" relative="1" as="geometry">
            <mxPoint x="400" y="520" as="sourcePoint" />
            <mxPoint x="450" y="470" as="targetPoint" />
            <Array as="points">
              <mxPoint x="400" y="200" />
            </Array>
          </mxGeometry>
        </mxCell>
        <mxCell id="y-4yaJ-ru7fZCb3O2Q1s-27" value="" style="endArrow=classic;html=1;rounded=0;exitX=0.75;exitY=0;exitDx=0;exitDy=0;entryX=0.25;entryY=1;entryDx=0;entryDy=0;" edge="1" parent="1" source="y-4yaJ-ru7fZCb3O2Q1s-7" target="y-4yaJ-ru7fZCb3O2Q1s-8">
          <mxGeometry width="50" height="50" relative="1" as="geometry">
            <mxPoint x="400" y="520" as="sourcePoint" />
            <mxPoint x="450" y="470" as="targetPoint" />
          </mxGeometry>
        </mxCell>
        <mxCell id="y-4yaJ-ru7fZCb3O2Q1s-28" value="" style="endArrow=classic;html=1;rounded=0;exitX=0.5;exitY=1;exitDx=0;exitDy=0;entryX=0.25;entryY=0;entryDx=0;entryDy=0;" edge="1" parent="1" source="y-4yaJ-ru7fZCb3O2Q1s-9" target="y-4yaJ-ru7fZCb3O2Q1s-8">
          <mxGeometry width="50" height="50" relative="1" as="geometry">
            <mxPoint x="400" y="520" as="sourcePoint" />
            <mxPoint x="450" y="470" as="targetPoint" />
          </mxGeometry>
        </mxCell>
        <mxCell id="y-4yaJ-ru7fZCb3O2Q1s-29" value="" style="endArrow=classic;html=1;rounded=0;exitX=0.867;exitY=0.933;exitDx=0;exitDy=0;exitPerimeter=0;entryX=0.25;entryY=0;entryDx=0;entryDy=0;" edge="1" parent="1" source="y-4yaJ-ru7fZCb3O2Q1s-9" target="y-4yaJ-ru7fZCb3O2Q1s-6">
          <mxGeometry width="50" height="50" relative="1" as="geometry">
            <mxPoint x="400" y="520" as="sourcePoint" />
            <mxPoint x="450" y="470" as="targetPoint" />
            <Array as="points">
              <mxPoint x="660" y="320" />
            </Array>
          </mxGeometry>
        </mxCell>
        <mxCell id="y-4yaJ-ru7fZCb3O2Q1s-30" value="" style="endArrow=classic;html=1;rounded=0;exitX=0.385;exitY=0.067;exitDx=0;exitDy=0;exitPerimeter=0;entryX=0;entryY=0.75;entryDx=0;entryDy=0;" edge="1" parent="1" source="y-4yaJ-ru7fZCb3O2Q1s-4" target="y-4yaJ-ru7fZCb3O2Q1s-9">
          <mxGeometry width="50" height="50" relative="1" as="geometry">
            <mxPoint x="400" y="520" as="sourcePoint" />
            <mxPoint x="450" y="470" as="targetPoint" />
            <Array as="points">
              <mxPoint x="680" y="490" />
            </Array>
          </mxGeometry>
        </mxCell>
        <mxCell id="y-4yaJ-ru7fZCb3O2Q1s-31" value="" style="endArrow=classic;html=1;rounded=0;entryX=0.25;entryY=0;entryDx=0;entryDy=0;" edge="1" parent="1" target="y-4yaJ-ru7fZCb3O2Q1s-3">
          <mxGeometry width="50" height="50" relative="1" as="geometry">
            <mxPoint x="330" y="690" as="sourcePoint" />
            <mxPoint x="450" y="470" as="targetPoint" />
          </mxGeometry>
        </mxCell>
        <mxCell id="y-4yaJ-ru7fZCb3O2Q1s-32" value="" style="endArrow=classic;html=1;rounded=0;exitX=0.75;exitY=0;exitDx=0;exitDy=0;entryX=0.25;entryY=1;entryDx=0;entryDy=0;" edge="1" parent="1" source="y-4yaJ-ru7fZCb3O2Q1s-4" target="y-4yaJ-ru7fZCb3O2Q1s-5">
          <mxGeometry width="50" height="50" relative="1" as="geometry">
            <mxPoint x="400" y="520" as="sourcePoint" />
            <mxPoint x="450" y="470" as="targetPoint" />
          </mxGeometry>
        </mxCell>
        <mxCell id="y-4yaJ-ru7fZCb3O2Q1s-34" value="" style="endArrow=classic;html=1;rounded=0;exitX=0.345;exitY=0.133;exitDx=0;exitDy=0;exitPerimeter=0;entryX=0.25;entryY=1;entryDx=0;entryDy=0;" edge="1" parent="1" source="y-4yaJ-ru7fZCb3O2Q1s-11" target="y-4yaJ-ru7fZCb3O2Q1s-3">
          <mxGeometry width="50" height="50" relative="1" as="geometry">
            <mxPoint x="400" y="520" as="sourcePoint" />
            <mxPoint x="450" y="470" as="targetPoint" />
          </mxGeometry>
        </mxCell>
      </root>
    </mxGraphModel>
  </diagram>
</mxfile>
